<?xml version="1.0" encoding="UTF-8"?>
<svg width="200px" height="254px" viewBox="0 0 200 254" version="1.1" xmlns="http://www.w3.org/2000/svg" xmlns:xlink="http://www.w3.org/1999/xlink">
    <!-- Generator: Sketch 44.1 (41455) - http://www.bohemiancoding.com/sketch -->
    <title>Path</title>
    <desc>Created with Sketch.</desc>
    <defs></defs>
    <g id="Page-1" stroke="none" stroke-width="1" fill="none" fill-rule="evenodd" fill-opacity="0.104959239">
        <path d="M38.1086803,189.414255 C34.6271291,186.0268 32.8863797,181.933687 32.8863797,177.134792 C32.8863797,171.771321 35.2622675,166.85488 40.0141143,162.385321 C44.7659612,157.915762 50.9997262,153.799125 58.7155963,150.035286 C66.4314665,146.271447 76.6407269,141.849002 89.3436838,136.767819 C74.9469993,136.485531 63.3968913,133.592124 54.6930134,128.087509 C45.9891355,122.582894 41.6372618,114.373143 41.6372618,103.45801 C41.6372618,94.0484121 44.9305716,84.8977156 51.51729,76.0056457 C58.1040085,67.1135759 67.4664178,59.821247 79.6047989,54.1284404 C91.74318,48.4356337 105.76327,45.5892731 121.66549,45.5892731 C126.182097,45.5892731 130.4634,45.8245095 134.509527,46.2949894 C139.026134,36.6031037 143.307437,28.5109711 147.353564,22.0183486 C151.399691,15.5257262 155.775088,10.3975723 160.479887,6.63373324 C165.937454,2.2112223 172.006553,0 178.687368,0 C185.17999,0 190.355191,1.71722583 194.213126,5.151729 C198.071061,8.58623218 200,13.5026733 200,19.9011997 C200,24.8882865 198.800294,29.710633 196.400847,34.3683839 C194.001399,39.0261348 190.70809,42.7899174 186.520819,45.6598447 C182.333548,48.5297721 177.793485,49.9647142 172.900494,49.9647142 C167.631119,49.9647142 163.420387,48.4121538 160.268172,45.3069866 C157.115957,42.2018193 155.539873,38.2498476 155.539873,33.4509527 C155.539873,29.5930176 156.716055,25.6175222 159.068454,21.5243472 C161.420854,17.4311722 164.855306,13.5497713 169.371912,9.88002823 C168.430953,9.40954834 167.631149,9.17431193 166.972477,9.17431193 C165.184653,9.17431193 163.585046,9.97411574 162.173606,11.5737474 C159.068439,14.3966267 155.375227,19.1954495 151.09386,25.9703599 C146.812493,32.7452703 143.119282,39.8023627 140.014114,47.141849 C149.800096,49.0237685 157.468803,52.5758384 163.020466,57.7981651 C168.572128,63.0204919 171.347918,69.9599661 171.347918,78.616796 C171.347918,87.4618179 168.501558,96.0714707 162.808751,104.446013 C157.115944,112.820555 149.000288,119.901171 138.461538,125.688073 C127.922789,131.474976 115.737543,135.027046 101.905434,136.34439 C86.0032138,141.990148 78.052223,147.118302 78.052223,151.729005 C78.052223,153.234541 78.8520268,154.481294 80.4516584,155.469301 C82.05129,156.457309 84.6388906,157.609968 88.2145378,158.927311 L114.467184,168.807339 C136.391547,176.993689 147.353564,188.285037 147.353564,202.681722 C147.353564,214.161431 142.531217,223.735553 132.88638,231.404375 C123.241542,239.073198 111.456198,244.718872 97.5299929,248.341567 C83.6037883,251.964262 70.2423599,253.775582 57.445307,253.775582 C45.4951179,253.775582 35.2152865,252.834637 26.6055046,250.952717 C17.9957227,249.070797 11.409103,246.412626 6.84544813,242.978123 C2.28179323,239.54362 0,235.521077 0,230.910374 C0,224.041368 3.1756916,219.077879 9.52717008,216.01976 C15.8786486,212.961641 25.1469633,210.11528 37.3323924,207.480593 C49.5178215,204.845905 58.009856,202.587636 62.8087509,200.705716 L51.3761468,197.177135 C46.0126761,195.389311 41.5902315,192.801711 38.1086803,189.414255 Z M54.9074863,223.323356 C52.4139429,230.00417 51.1671899,235.696892 51.1671899,240.40169 C51.1671899,243.412762 51.9669937,245.553413 53.5666253,246.823709 C55.1662569,248.094005 57.5656683,248.729143 60.7649316,248.729143 C67.539842,248.729143 74.5734108,247.623532 81.865849,245.412276 C89.1582873,243.201021 95.2273868,240.072376 100.07333,236.026249 C104.919272,231.980122 107.342208,227.369489 107.342208,222.19421 C107.342208,219.653618 106.589451,217.607062 105.083915,216.054478 C103.57838,214.501894 101.83763,213.349236 99.8616147,212.596468 C97.8855992,211.8437 94.7804785,210.80866 90.5461595,209.491316 L66.975235,202.010724 C61.4235724,209.538402 57.4010297,216.642542 54.9074863,223.323356 Z M109.751052,122.797395 C113.608988,116.728204 116.643537,108.847784 118.854793,99.1558984 C121.066048,89.4640127 122.218707,79.4429415 122.312803,69.0923839 C122.312803,62.9761454 121.818806,58.4596062 120.830798,55.5426309 C119.842791,52.6256556 117.843281,51.1671899 114.83221,51.1671899 C110.597891,51.1671899 106.528301,54.178216 102.623318,60.2003585 C98.7183348,66.2225011 95.5896905,74.1264446 93.237291,83.9124263 C90.8848916,93.6984079 89.7087095,104.001763 89.7087095,114.8228 C89.7087095,121.315423 90.2497533,125.784915 91.331857,128.23141 C92.4139607,130.677905 94.2723284,131.901135 96.9070158,131.901135 C101.611815,131.901135 105.893117,128.866585 109.751052,122.797395 Z" id="Path" fill="#ED4C5C"></path>
    </g>
</svg>